<?xml version="1.0" standalone="no"?><!DOCTYPE svg PUBLIC "-//W3C//DTD SVG 1.1//EN" "http://www.w3.org/Graphics/SVG/1.1/DTD/svg11.dtd"><svg t="1526541130339" class="icon" style="" viewBox="0 0 1024 1024" version="1.1" xmlns="http://www.w3.org/2000/svg" p-id="1380" xmlns:xlink="http://www.w3.org/1999/xlink" width="200" height="200"><defs><style type="text/css"></style></defs><path d="M869 869H155c-57.9 0-105-47.1-105-105V260c0-57.9 47.1-105 105-105h714c57.9 0 105 47.1 105 105v504c0 57.9-47.1 105-105 105zM155 197c-34.7 0-63 28.3-63 63v504c0 34.7 28.3 63 63 63h714c34.7 0 63-28.3 63-63V260c0-34.7-28.3-63-63-63H155z" p-id="1381"></path><path d="M750.9 533h-105c-40.5 0-73.5-33-73.5-73.5v-105c0-40.5 33-73.5 73.5-73.5h105c40.5 0 73.5 33 73.5 73.5v105c0 40.5-33 73.5-73.5 73.5z m-105-210c-17.4 0-31.5 14.1-31.5 31.5v105c0 17.3 14.1 31.5 31.5 31.5h105c17.4 0 31.5-14.2 31.5-31.5v-105c0-17.4-14.1-31.5-31.5-31.5h-105zM552.4 617.3H214.3c-10.9 0-19.9-9-19.9-19.9v-2.2c0-11 9-19.9 19.9-19.9h338.2c11 0 19.9 9 19.9 19.9v2.2c0 10.9-9 19.9-20 19.9M552.4 743.3H214.3c-10.9 0-19.9-9-19.9-19.9v-2.2c0-11 9-19.9 19.9-19.9h338.2c11 0 19.9 9 19.9 19.9v2.2c0 10.9-9 19.9-20 19.9" p-id="1382"></path></svg>