<?xml version="1.0" standalone="no"?><!DOCTYPE svg PUBLIC "-//W3C//DTD SVG 1.1//EN" "http://www.w3.org/Graphics/SVG/1.1/DTD/svg11.dtd"><svg t="1526540985708" class="icon" style="" viewBox="0 0 1024 1024" version="1.1" xmlns="http://www.w3.org/2000/svg" p-id="1139" xmlns:xlink="http://www.w3.org/1999/xlink" width="200" height="200"><defs><style type="text/css"></style></defs><path d="M460.3 817.1c-196.9 0-357-160.1-357-357s160.1-357 357-357 357 160.1 357 357-160.1 357-357 357z m0-672c-173.7 0-315 141.3-315 315s141.3 315 315 315 315-141.3 315-315c0-173.6-141.3-315-315-315zM914.5 914.7c-8.2 8.2-21.5 8.2-29.7 0L736.4 766.2c-8.2-8.2-8.2-21.5 0-29.7s21.5-8.2 29.7 0L914.6 885c8.1 8.2 8.2 21.5-0.1 29.7z" p-id="1140"></path></svg>