<?xml version="1.0" standalone="no"?><!DOCTYPE svg PUBLIC "-//W3C//DTD SVG 1.1//EN" "http://www.w3.org/Graphics/SVG/1.1/DTD/svg11.dtd"><svg t="1526540938350" class="icon" style="" viewBox="0 0 1024 1024" version="1.1" xmlns="http://www.w3.org/2000/svg" p-id="1018" xmlns:xlink="http://www.w3.org/1999/xlink" width="200" height="200"><defs><style type="text/css"></style></defs><path d="M743 540.8c0 11.6-9.4 21-21 21H302c-11.6 0-21-9.4-21-21s9.4-21 21-21h420c11.6 0 21 9.4 21 21zM743 372.8c0 11.6-9.4 21-21 21H302c-11.6 0-21-9.4-21-21s9.4-21 21-21h420c11.6 0 21 9.4 21 21z" p-id="1019"></path><path d="M511.4 909.8c-16.8 0-32.6-6.6-44.5-18.5l-63.1-63.1H176c-57.9 0-105-47.1-105-105v-504c0-57.9 47.1-105 105-105h672c57.9 0 105 47.1 105 105v504c0 57.9-47.1 105-105 105H619.1L556 891.3c-12 11.9-27.8 18.5-44.6 18.5zM176 156.2c-34.7 0-63 28.3-63 63v504c0 34.7 28.3 63 63 63h245.1l75.4 75.4c7.9 7.9 21.8 7.9 29.7 0l75.4-75.4H848c34.7 0 63-28.3 63-63v-504c0-34.7-28.3-63-63-63H176z" p-id="1020"></path></svg>